<?xml version="1.0" encoding="UTF-8" standalone="no"?>
<!DOCTYPE svg PUBLIC "-//W3C//DTD SVG 1.1//EN" "http://www.w3.org/Graphics/SVG/1.1/DTD/svg11.dtd">
<svg width="100%" height="100%" viewBox="0 0 17 17" version="1.1" xmlns="http://www.w3.org/2000/svg" xmlns:xlink="http://www.w3.org/1999/xlink" xml:space="preserve" xmlns:serif="http://www.serif.com/" style="fill-rule:evenodd;clip-rule:evenodd;stroke-linejoin:round;stroke-miterlimit:2;">
    <g transform="matrix(1,0,0,1,-2,-2)">
        <text x="9px" y="14.596px" style="font-family:'ArialMT', 'Arial', sans-serif;font-size:12px;fill:rgb(32,240,146);">i</text>
    </g>
    <g transform="matrix(17,0,0,7.5,-221,-44)">
        <path d="M13.5,6C13.776,6 14,6.448 14,7C14,7.552 13.776,8 13.5,8C13.224,8 13,7.552 13,7C13,6.448 13.224,6 13.5,6ZM13.5,6.127C13.741,6.127 13.937,6.518 13.937,7C13.937,7.482 13.741,7.873 13.5,7.873C13.259,7.873 13.063,7.482 13.063,7C13.063,6.518 13.259,6.127 13.5,6.127Z" style="fill:rgb(32,240,146);"/>
    </g>
</svg>
